# xmcd
#
# Track frame offsets: 
#        150
#        20270
#        35189
#        54325
#        78213
#        99744
#        121530
#        147291
#        171204
#        194201
#        216747
#
# Disc length: 3145 seconds
#
# Revision: 0
# Processed by: cddbd v1.5.2PL0 Copyright (c) Steve Scherf et al.
# Submitted via: ExactAudioCopy v0.99pb3
#
DISCID=9e0c470b
DTITLE=Morblus - Mrs. Miller
DYEAR=2003
DGENRE=Blues
TTITLE0=Goodbye Mrs. Miller
TTITLE1=La Fabbrica di Incubi
TTITLE2=Secret Baby Love
TTITLE3=Guidando col Diavolo
TTITLE4=Sotto un Cielo Così
TTITLE5=Piccola Isterica
TTITLE6=Confondimi
TTITLE7=Il Tempo è un Ladro
TTITLE8=Misunderstanding
TTITLE9=Ottobre
TTITLE10=Specchi Rosa, Specchi Blu
EXTD=
EXTT0=
EXTT1=
EXTT2=
EXTT3=
EXTT4=
EXTT5=
EXTT6=
EXTT7=
EXTT8=
EXTT9=
EXTT10=
PLAYORDER=
